HIERARCHY
ROOT joint_Root
{
	OFFSET 0.0 0.0 0.0
	CHANNELS 6 Xposition Yposition Zposition Zrotation Xrotation Yrotation 
	JOINT Hips
	{
		OFFSET 4.5925 91.4895 -427.239
		CHANNELS 6 Xposition Yposition Zposition Zrotation Xrotation Yrotation 
		JOINT Spine
		{
			OFFSET 15.7357 0.0 0.0
			CHANNELS 6 Xposition Yposition Zposition Zrotation Xrotation Yrotation 
			JOINT Chest
			{
				OFFSET 8.98455 -0.406207 0.0
				CHANNELS 6 Xposition Yposition Zposition Zrotation Xrotation Yrotation 
				JOINT Neck
				{
					OFFSET 16.3773 0.0 0.0
					CHANNELS 6 Xposition Yposition Zposition Zrotation Xrotation Yrotation 
					JOINT Head
					{
						OFFSET 6.45672 0.0 0.0
						CHANNELS 6 Xposition Yposition Zposition Zrotation Xrotation Yrotation 
						End Site
						{
							OFFSET 0.0 0.0 0.0
						}
					}
				}
				JOINT Shoulder_L
				{
					OFFSET 12.9942 -0.242716 4.98039
					CHANNELS 6 Xposition Yposition Zposition Zrotation Xrotation Yrotation 
					JOINT UpperArm_L
					{
						OFFSET 5.34809 0.0 0.0
						CHANNELS 6 Xposition Yposition Zposition Zrotation Xrotation Yrotation 
						JOINT LowerArm_L
						{
							OFFSET 24.3286 1.87007e-05 0.0
							CHANNELS 6 Xposition Yposition Zposition Zrotation Xrotation Yrotation 
							JOINT Hand_L
							{
								OFFSET 22.2916 0.0 0.0
								CHANNELS 6 Xposition Yposition Zposition Zrotation Xrotation Yrotation 
								End Site
								{
									OFFSET 0.0 0.0 0.0
								}
							}
						}
					}
				}
				JOINT Shoulder_R
				{
					OFFSET 12.9945 -0.242716 -4.98039
					CHANNELS 6 Xposition Yposition Zposition Zrotation Xrotation Yrotation 
					JOINT UpperArm_R
					{
						OFFSET -5.34813 0.0 0.0
						CHANNELS 6 Xposition Yposition Zposition Zrotation Xrotation Yrotation 
						JOINT LowerArm_R
						{
							OFFSET -24.3289 0.000322201 0.0
							CHANNELS 6 Xposition Yposition Zposition Zrotation Xrotation Yrotation 
							JOINT Hand_R
							{
								OFFSET -22.2915 -0.000108084 0.0
								CHANNELS 6 Xposition Yposition Zposition Zrotation Xrotation Yrotation 
								End Site
								{
									OFFSET 0.0 0.0 0.0
								}
							}
						}
					}
				}
			}
		}
		JOINT UpperLeg_L
		{
			OFFSET -2.19248 -6.46944 0.0
			CHANNELS 6 Xposition Yposition Zposition Zrotation Xrotation Yrotation 
			JOINT LowerLeg_L
			{
				OFFSET 39.0811 0.0 -1.23785e-05
				CHANNELS 6 Xposition Yposition Zposition Zrotation Xrotation Yrotation 
				JOINT Foot_L
				{
					OFFSET 40.9854 0.0 -1.26872e-05
					CHANNELS 6 Xposition Yposition Zposition Zrotation Xrotation Yrotation 
					JOINT Toes_L
					{
						OFFSET 11.7543 0.0 0.0
						CHANNELS 6 Xposition Yposition Zposition Zrotation Xrotation Yrotation 
						End Site
						{
							OFFSET 0.0 0.0 0.0
						}
					}
				}
			}
		}
		JOINT UpperLeg_R
		{
			OFFSET -2.19251 6.46944 0.0
			CHANNELS 6 Xposition Yposition Zposition Zrotation Xrotation Yrotation 
			JOINT LowerLeg_R
			{
				OFFSET -39.0811 -0.00228153 -0.0401928
				CHANNELS 6 Xposition Yposition Zposition Zrotation Xrotation Yrotation 
				JOINT Foot_R
				{
					OFFSET -40.9854 0.0 0.0
					CHANNELS 6 Xposition Yposition Zposition Zrotation Xrotation Yrotation 
					JOINT Toes_R
					{
						OFFSET -11.7543 0.0 0.0
						CHANNELS 6 Xposition Yposition Zposition Zrotation Xrotation Yrotation 
						End Site
						{
							OFFSET 0.0 0.0 0.0
						}
					}
				}
			}
		}
	}
}
MOTION
Frames:	5
Frame Time:	0.0333333
0.000000 0.000000 0.000000 0.000000 0.000000 -0.000000 2.238290 83.414600 0.413384 90.832500 -4.222300 12.019300 15.735700 0.000005 -0.000001 105.109000 80.132100 -105.570000 8.984550 -0.406207 -0.000000 11.341000 5.089450 -1.427640 16.377300 -0.000001 -0.000001 -1.168460 -6.629880 0.193584 6.456720 -0.000001 -0.000000 -2.426590 -12.763800 3.428670 12.994200 -0.242716 4.980390 -93.014700 7.422860 -67.821700 5.348090 -0.000007 -0.000001 -71.387400 14.778600 5.670030 24.328600 0.000019 0.000005 4.199400 9.529880 -23.916300 22.291600 -0.000001 0.000005 15.310900 5.173020 3.385590 12.994500 -0.242716 -4.980390 88.761900 9.088730 -82.209500 -5.348130 -0.000001 -0.000004 -60.406900 29.880000 -12.911100 -24.328900 0.000322 -0.000009 -0.822056 -2.036160 -21.966400 -22.291500 -0.000108 -0.000004 17.770200 5.419600 -3.589600 -2.192480 -6.469440 -0.000000 -175.389000 -17.274400 -10.093300 39.081100 -0.000007 -0.000012 -0.427128 0.269051 57.793900 40.985400 -0.000006 -0.000013 3.842130 6.294590 -85.427200 11.754300 -0.000000 0.000003 -0.000275 -0.002419 -16.667900 -2.192510 6.469440 -0.000001 173.142000 10.736700 168.132000 -39.081100 -0.002282 -0.040193 0.076664 -0.043500 59.367900 -40.985400 0.000008 0.000006 4.225660 3.998260 -84.052700 -11.754300 -0.000006 -0.000006 -1.285620 -1.596660 -17.185000
0.000000 0.000000 0.000000 0.000000 0.000000 -0.000000 3.181750 84.844400 0.879432 91.187400 -7.853210 11.390600 15.735700 0.000005 -0.000001 103.573000 80.838800 -103.256000 8.984550 -0.406207 -0.000000 10.053400 4.278950 0.256493 16.377300 -0.000001 -0.000001 -0.269598 -6.695870 1.014880 6.456720 -0.000001 -0.000000 -0.793910 -11.710700 3.311460 12.994200 -0.242716 4.980390 -92.705900 6.618520 -67.703500 5.348090 -0.000007 -0.000001 -71.692000 15.471900 7.030900 24.328600 0.000019 0.000005 4.287630 10.202600 -22.937800 22.291600 -0.000001 0.000005 12.474200 5.205430 2.575440 12.994500 -0.242716 -4.980390 88.629400 9.024850 -81.327400 -5.348130 -0.000001 -0.000004 -60.963700 27.932500 -14.250100 -24.328900 0.000322 -0.000009 -0.937496 -2.512900 -20.445700 -22.291500 -0.000108 -0.000004 18.423200 5.390140 -2.619860 -2.192480 -6.469440 -0.000000 -176.804000 -18.044400 -7.879470 39.081100 -0.000007 -0.000012 -0.420451 0.317104 52.977400 40.985400 -0.000006 -0.000013 2.818730 3.436360 -83.607400 11.754300 -0.000000 0.000003 -0.000259 -0.002301 -16.663700 -2.192510 6.469440 -0.000001 172.710000 8.087510 168.966000 -39.081100 -0.002282 -0.040193 0.053892 -0.035168 55.235200 -40.985400 0.000008 0.000006 3.992570 5.389510 -81.623600 -11.754300 -0.000006 -0.000006 -1.290220 -1.595990 -17.364800
0.000000 0.000000 0.000000 0.000000 0.000000 -0.000000 3.950030 86.684000 1.112150 91.325400 -11.089000 9.839340 15.735700 0.000005 -0.000001 103.715000 81.920900 -102.445000 8.984550 -0.406207 -0.000000 7.903430 3.816340 2.274210 16.377300 -0.000001 -0.000001 1.823230 -6.248940 1.101110 6.456720 -0.000001 -0.000000 0.725124 -10.297000 2.131840 12.994200 -0.242716 4.980390 -92.211600 5.178550 -66.834800 5.348090 -0.000007 -0.000001 -66.521400 13.538500 2.191130 24.328600 0.000019 0.000005 8.586070 18.383100 -25.579600 22.291600 -0.000001 0.000005 9.241820 5.238600 1.734430 12.994500 -0.242716 -4.980390 88.540400 8.466270 -80.180600 -5.348130 -0.000001 -0.000004 -62.269300 26.698700 -13.315200 -24.328900 0.000322 -0.000009 -1.053640 -2.706420 -21.262100 -22.291500 -0.000108 -0.000004 18.180200 5.395770 -2.802750 -2.192480 -6.469440 -0.000000 -178.109000 -19.096900 -6.145690 39.081100 -0.000007 -0.000012 -0.360089 0.341933 46.482200 40.985400 -0.000006 -0.000013 2.161140 1.292890 -80.672300 11.754300 -0.000000 0.000003 -0.000268 -0.002364 -16.666000 -2.192510 6.469440 -0.000001 172.336000 7.239570 169.497000 -39.081100 -0.002282 -0.040193 0.034161 -0.026342 49.564400 -40.985400 0.000008 0.000006 4.040270 7.938210 -77.982500 -11.754300 -0.000006 -0.000006 -1.245740 -1.521900 -17.886800
0.000000 0.000000 0.000000 0.000000 0.000000 -0.000000 4.373190 88.335500 1.136300 91.364100 -13.216900 8.243370 15.735700 0.000005 -0.000001 103.689000 83.074000 -101.572000 8.984550 -0.406207 -0.000000 5.643300 3.230990 4.071260 16.377300 -0.000001 -0.000001 4.756450 -5.481280 0.824250 6.456720 -0.000001 -0.000000 2.083780 -8.745840 0.469640 12.994200 -0.242716 4.980390 -91.721900 3.881180 -66.052200 5.348090 -0.000007 -0.000001 -57.840700 3.836700 -7.435470 24.328600 0.000019 0.000005 9.834370 18.029500 -29.255700 22.291600 -0.000001 0.000005 9.946840 5.206780 2.549050 12.994500 -0.242716 -4.980390 88.514000 7.783760 -79.156800 -5.348130 -0.000001 -0.000004 -63.510400 26.683900 -11.210700 -24.328900 0.000322 -0.000009 -1.163720 -2.729070 -23.086000 -22.291500 -0.000108 -0.000004 16.998400 5.424050 -3.740080 -2.192480 -6.469440 -0.000000 -178.870000 -20.400200 -4.602350 39.081100 -0.000007 -0.000012 -0.277306 0.330420 40.005700 40.985400 -0.000006 -0.000013 2.055460 0.738689 -77.529300 11.754300 -0.000000 0.000003 -0.000238 -0.002140 -16.657900 -2.192510 6.469440 -0.000001 171.953000 8.740130 170.243000 -39.081100 -0.002282 -0.040193 0.023631 -0.021233 43.802100 -40.985400 0.000008 0.000006 4.436280 11.125200 -74.654800 -11.754300 -0.000006 -0.000006 -1.052710 -1.274740 -18.241100
0.000000 0.000000 0.000000 0.000000 0.000000 -0.000000 4.411610 89.403000 1.068870 91.219800 -13.762700 7.633340 15.735700 0.000005 -0.000001 100.853000 83.848800 -98.278200 8.984550 -0.406207 -0.000000 4.273970 2.234260 5.059940 16.377300 -0.000001 -0.000001 7.348040 -5.078400 1.001460 6.456720 -0.000001 -0.000000 3.408120 -7.698760 0.010483 12.994200 -0.242716 4.980390 -91.226700 2.843900 -66.659500 5.348090 -0.000007 -0.000001 -48.308100 -9.106700 -18.921900 24.328600 0.000019 0.000005 11.957300 16.453400 -36.775500 22.291600 -0.000001 0.000005 14.373900 5.252130 1.391050 12.994500 -0.242716 -4.980390 88.398700 7.799440 -78.360400 -5.348130 -0.000001 -0.000004 -64.001400 27.721800 -8.895240 -24.328900 0.000322 -0.000009 -1.364540 -2.933690 -24.938600 -22.291500 -0.000108 -0.000004 15.541400 5.443070 -4.393690 -2.192480 -6.469440 -0.000000 -178.927000 -20.564200 -2.956900 39.081100 -0.000007 -0.000012 -0.210519 0.296291 35.394700 40.985400 -0.000006 -0.000013 1.981070 0.824571 -75.188600 11.754300 -0.000000 0.000003 -0.000197 -0.001832 -16.646700 -2.192510 6.469440 -0.000001 171.668000 11.576300 172.169000 -39.081100 -0.002282 -0.040193 0.017451 -0.017556 38.907300 -40.985400 0.000008 0.000006 4.929570 14.052300 -73.244400 -11.754300 -0.000006 -0.000006 -0.289437 -0.366717 -17.912000
